<svg width="184" height="26" fill="none" xmlns="http://www.w3.org/2000/svg"><path d="M16.014 20.528H7.819l-1.43 4.634H0L9.097.358h5.622l9.165 24.804h-6.422l-1.448-4.634ZM9.25 15.911h5.333l-2.675-8.603-2.658 8.603ZM45.4 16.763c-.08 1.726-.545 3.254-1.397 4.583-.852 1.317-2.05 2.34-3.594 3.066-1.533.727-3.288 1.09-5.264 1.09-3.26 0-5.827-1.061-7.7-3.185-1.874-2.124-2.811-5.122-2.811-8.995v-1.227c0-2.43.42-4.554 1.26-6.371.852-1.829 2.073-3.237 3.663-4.225C31.147.5 32.987 0 35.077 0c3.01 0 5.428.795 7.257 2.385 1.828 1.579 2.867 3.76 3.117 6.542H39.49c-.046-1.51-.426-2.595-1.142-3.254-.715-.659-1.805-.988-3.27-.988-1.488 0-2.579.556-3.271 1.67-.693 1.112-1.057 2.89-1.09 5.332v1.754c0 2.646.329 4.537.987 5.673.67 1.136 1.818 1.704 3.442 1.704 1.374 0 2.424-.324 3.151-.971.727-.648 1.113-1.676 1.159-3.084H45.4ZM67.189 4.974h-7.445v20.188h-5.98V4.974h-7.308V.358H67.19v4.616ZM76.099 25.162h-5.963V.358h5.963v24.804ZM89.88 18.416 94.82.358h6.679l-8.348 24.804H86.61L78.33.358h6.627l4.923 18.058ZM118.705 14.65h-9.404v5.912h11.107v4.6h-17.086V.358h17.12v4.616h-11.141v5.23h9.404v4.447Z" fill="#656980"/><path d="M123.454 25.145V.34h6.524c2.669 0 4.685.545 6.048 1.635 1.374 1.08 2.061 2.652 2.061 4.719 0 1.5-.38 2.743-1.141 3.73-.761.989-1.834 1.62-3.22 1.892 1.568.204 2.874.886 3.918 2.044 1.045 1.147 1.568 2.465 1.568 3.952 0 2.113-.687 3.782-2.062 5.009-1.362 1.215-3.265 1.823-5.707 1.823h-7.989Zm.92-12.249v11.329h7.172c2.101 0 3.748-.517 4.94-1.55 1.204-1.045 1.806-2.488 1.806-4.328 0-1.567-.579-2.856-1.738-3.867-1.158-1.022-2.708-1.55-4.651-1.584h-7.529Zm0-.92h5.945c2.26 0 3.964-.432 5.111-1.295 1.147-.874 1.72-2.226 1.72-4.054 0-3.52-2.322-5.31-6.967-5.366h-5.809v10.715ZM162.074 14.6c0 2.146-.386 4.048-1.159 5.707-.761 1.646-1.851 2.924-3.271 3.833-1.419.897-3.055 1.345-4.906 1.345-2.794 0-5.054-.993-6.78-2.98-1.726-1.988-2.59-4.669-2.59-8.042v-3.577c0-2.135.381-4.032 1.142-5.69.772-1.658 1.868-2.936 3.288-3.833C149.229.454 150.864 0 152.704 0c1.851 0 3.487.454 4.906 1.363 1.431.897 2.533 2.18 3.305 3.85.773 1.658 1.159 3.549 1.159 5.673V14.6Zm-.92-3.748c0-2.999-.761-5.4-2.283-7.206-1.522-1.817-3.578-2.726-6.167-2.726-2.555 0-4.594.903-6.116 2.709-1.522 1.794-2.283 4.241-2.283 7.342V14.6c0 1.976.341 3.725 1.023 5.247.692 1.51 1.675 2.674 2.947 3.492 1.272.818 2.76 1.227 4.463 1.227 2.59 0 4.639-.903 6.15-2.71 1.51-1.805 2.266-4.27 2.266-7.393v-3.611ZM174.373 11.772 182.38.34h1.159l-8.586 12.146 8.909 12.658h-1.141l-8.348-11.942-8.381 11.942h-1.107l8.909-12.658L165.208.341h1.159l8.006 11.43Z" fill="#fff"/></svg>